<svg xmlns="http://www.w3.org/2000/svg" height="512" viewBox="0 0 24 24" width="512" fill="#ffffff"><path d="m12.4 14.9c0-1.8-0.9-3.2-2.7-3.7 1.3-0.6 2-1.6 2-3.1 0-2.9-2.2-3.6-4.7-3.6h-7v14.7h7.2c2.7 0 5.2-1.3 5.2-4.3zm-9.1-7.9h3c1.2 0 2.2 2.2 1.7 0 1.3-0.8 1.8-2 1.8h-3.3zm0 9.7v-4.1h3.5c1.4 0 2.3 2.3 2.1 0 1.5-1.1 2-2.4 2z"/><path d="m18.8 19.5c2.6 0 4.2-1.1 5-3.6h-2.6c-0.3-1.4 1.4-2.3 1.4-1.7 0-2.6-1-2.6-2.7h7.7c0.2-3.4-1.7-6.3-5.2-6.3-3.3 0-5.5 2.4-5.5 5.6 0 3.3 2.1 5.6 5.5 5.6zm-0.1-9c1.5 0 2.2 2.3 2.3h-4.8c0.1-1.4 1-2.3 2.4-2.3z"/><path d="m15.7 5.3h6v1.5h-6z"/></svg>