<?xml version="1.0" encoding="utf-8"?>
<!-- Generator: Adobe Illustrator 22.1.0, SVG Export Plug-In . SVG Version: 6.00 Build 0)  -->
<svg version="1.1" id="Capa_1" xmlns="http://www.w3.org/2000/svg" xmlns:xlink="http://www.w3.org/1999/xlink" x="0px" y="0px"
	 viewBox="272.3 221 96 120" style="enable-background:new 272.3 221 96 120;" xml:space="preserve" fill="#330066">
<g>
	<g>
		<path d="M-395.2,218.6h-5.6v-5.6h5.6V218.6z M-399.7,217.5h3.5V214h-3.5V217.5z"/>
	</g>
	<g>
		<path d="M-365.2,218.6h-5.6v-5.6h5.6V218.6z M-369.8,217.5h3.5V214h-3.5V217.5z"/>
	</g>
	<g>
		<path d="M-380.3,204.8h-5.4v-5.4h5.4V204.8z M-384.7,203.8h3.3v-3.3h-3.3V203.8z"/>
	</g>
	<g>
		<path d="M-400,205.2c-1.4,0-2.6-1.2-2.6-2.6c0-1.4,1.2-2.6,2.6-2.6s2.6,1.2,2.6,2.6C-397.4,204-398.6,205.2-400,205.2z
			 M-400,201.1c-0.8,0-1.5,0.7-1.5,1.5s0.7,1.5,1.5,1.5s1.5-0.7,1.5-1.5S-399.2,201.1-400,201.1z"/>
	</g>
	<g>
		<path d="M-366,205.2c-1.4,0-2.6-1.2-2.6-2.6c0-1.4,1.2-2.6,2.6-2.6c1.4,0,2.6,1.2,2.6,2.6C-363.4,204-364.6,205.2-366,205.2z
			 M-366,201.1c-0.8,0-1.5,0.7-1.5,1.5s0.7,1.5,1.5,1.5c0.8,0,1.5-0.7,1.5-1.5S-365.2,201.1-366,201.1z"/>
	</g>
	<g>
		<rect x="-380.8" y="202.1" width="12.8" height="1"/>
	</g>
	<g>
		<rect x="-398" y="202.1" width="12.8" height="1"/>
	</g>
	<g>
		<path d="M-368.5,213.6c-1.7-5.7-6.5-9.8-12.3-10.7l0.1-1c6.2,0.9,11.4,5.4,13.2,11.4L-368.5,213.6z"/>
	</g>
	<g>
		<path d="M-397.5,213.7l-1-0.3c1.8-6.1,6.9-10.6,13.2-11.5l0.1,1C-391,203.8-395.8,208-397.5,213.7z"/>
	</g>
</g>
</svg>
