<svg xmlns="http://www.w3.org/2000/svg" x="0" y="0" viewBox="0 0 55 55" class="undefined" fill="#e91e63">
  <g class="undefined">
    <circle cx="45" cy="26" r="1" class="undefined"/>
    <circle cx="9" cy="26" r="1" class="undefined"/>
    <circle cx="12" cy="29" r="1" class="undefined"/>
    <circle cx="18" cy="29" r="1" class="undefined"/>
    <circle cx="15" cy="32" r="1" class="undefined"/>
    <circle cx="21" cy="32" r="1" class="undefined"/>
    <circle cx="24" cy="35" r="1" class="undefined"/>
    <circle cx="30" cy="35" r="1" class="undefined"/>
    <circle cx="33" cy="32" r="1" class="undefined"/>
    <circle cx="27" cy="38" r="1" class="undefined"/>
    <circle cx="36" cy="29" r="1" class="undefined"/>
    <circle cx="42" cy="29" r="1" class="undefined"/>
    <circle cx="39" cy="32" r="1" class="undefined"/>
    <path d="M45.6 32.8l9.4-5.4 -9.7-5.5 9.7-5.5L27.5 0.8 0 16.4l9.7 5.5L0 27.4l9.7 5.5L0 38.4l27.5 15.7 27.5-15.7 -9.7-5.5 0.1 0C45.4 32.9 45.5 32.8 45.6 32.8zM27.5 3.1l23.4 13.3 -7.6 4.4 0 0 -15.8 9L4 16.4 27.5 3.1zM11.1 23.4c0.2 0.3 0.5 0.6 0.9 0.6 0.3 0 0.5-0.1 0.7-0.3l2.3 1.3c-0.5 0-1 0.5-1 1 0 0.6 0.4 1 1 1s1-0.4 1-1c0-0.2-0.1-0.3-0.1-0.5l10.3 5.9c-0.1 0.2-0.2 0.4-0.2 0.6 0 0.6 0.4 1 1 1s1-0.4 1-1c0-0.1 0-0.1 0-0.1l10.1-5.7c0.1 0.5 0.5 0.9 1 0.9 0.6 0 1-0.4 1-1 0-0.3-0.2-0.6-0.4-0.8l2.2-1.3c0.1 0 0.1 0 0.2 0 0.4 0 0.8-0.3 0.9-0.7l0.3-0.2 7.6 4.3 -2 1.1c-0.2-0.3-0.5-0.6-0.9-0.6 -0.6 0-1 0.4-1 1 0 0.2 0.1 0.4 0.2 0.6l-3.9 2.3 0 0 -6.4 3.7c0.1-0.1 0.1-0.3 0.1-0.5 0-0.6-0.4-1-1-1s-1 0.4-1 1c0 0.5 0.4 1 1 1l-2.3 1.3c-0.2-0.2-0.4-0.3-0.7-0.3 -0.6 0-1 0.4-1 1 0 0.1 0 0.2 0 0.2l-4.6 2.6 -5.5-3.2c-0.1-0.4-0.5-0.7-0.9-0.7 -0.1 0-0.1 0-0.2 0l-2.2-1.3c0.2-0.2 0.4-0.5 0.4-0.8 0-0.6-0.4-1-1-1 -0.5 0-0.9 0.4-1 0.9L7 29.1c0 0 0-0.1 0-0.1 0-0.6-0.4-1-1-1 -0.2 0-0.4 0.1-0.6 0.2l-1.4-0.8L11.1 23.4zM50.9 38.4l-23.4 13.4L4 38.4l7.6-4.3 15.8 9 15.8-9L50.9 38.4z" class="undefined"/>
  </g>
</svg>