<svg xmlns="http://www.w3.org/2000/svg" height="512" viewBox="0 -2 512 511" width="512" fill="#e91e63"><path d="m496 0.5v167.1l-16-8v-159.1h-16v160l-8 6-8-6v-160h-16v159.1l-16 8v-167.1h-16v182.3l56 88.7 56-88.7v-182.3zm-40 241-15.8-25h31.6zm25.9-41h-51.8l-10.6-16.8 19.7-9.8 16.8 12.6 16.8-12.6 19.7 9.8zm0 0"/><path d="m225.8 176.5-28 112h116.5l-28-112zm-7.5 96 20-80h35.5l20 80zm0 0"/><path d="m312 103.2v-54.7h32v-16h-32v-32h-16v32h-80v-32h-16v32h-32v16h32v54.7l-23.8 73.3h-112.2v-32h-16v32h-48v16h48v80h-48v16h48v32h16v-32h75.9l-51.9 160h-40v16h34.8l-12.2 37.5 15.2 4.9 13.8-42.5h49.7l-10.8 37.8 15.4 4.4 12.1-42.2h42v-16h-37.4l27.4-96h115.9l27.4 96h-37.4v16h42l12.1 42.2 15.4-4.4-10.8-37.8h49.7l13.8 42.5 15.2-4.9-12.2-37.5h34.8v-16h-40zm-96-54.7h80v48h-80zm-152 224v-80h107l-25.9 80zm90 176h-49.1l13-40h47.6zm188.1-56-16-56h-140.1l-16 56h-47l90.8-280h84.4l90.8 280zm16 56-11.4-40h47.6l13 40zm0 0"/></svg>