<?xml version="1.0" encoding="utf-8"?>
<!-- Generator: Adobe Illustrator 22.1.0, SVG Export Plug-In . SVG Version: 6.00 Build 0)  -->
<svg version="1.1" id="Capa_1" xmlns="http://www.w3.org/2000/svg" xmlns:xlink="http://www.w3.org/1999/xlink" x="0px" y="0px"
	 viewBox="0 0 574 403" style="enable-background:new 0 0 574 403;" xml:space="preserve">
<style type="text/css">
	.st0{fill:#ffffff;}
	.st1{fill:#ffffff;}
</style>
<g>
	<path class="st0" d="M145.2,98.4c-5.8,0-10.7,2-14.7,6.1c-4,4-6.1,8.9-6.1,14.7v110.1h41.5V119.1c0-5.8-2-10.7-6.1-14.7
		C155.8,100.4,150.9,98.4,145.2,98.4z M153.5,216.8h-16.6v-97.7c0-5.5,2.8-8.3,8.3-8.3c5.5,0,8.3,2.8,8.3,8.3V216.8z"/>
	<path class="st0" d="M469.2,223.4c4-3.9,6.1-8.8,6.1-14.5v-89.7c0-5.8-2-10.7-6.1-14.7c-4-4-8.9-6.1-14.7-6.1h-20.8v130.9h20.8
		C460.3,229.3,465.2,227.3,469.2,223.4z M446.2,110.8h8.3c5.5,0,8.3,2.8,8.3,8.3v89.7c0,5.3-2.8,8-8.3,8h-8.3V110.8z"/>
	<path class="st0" d="M360.1,284.1c0,5.6-4.5,10.1-10.1,10.1c-5.6,0-10.1-4.5-10.1-10.1V139.9c0-11.5-4-21.3-12.1-29.4
		c-8.1-8.1-17.9-12.1-29.4-12.1c-9.5,0-17.8,2.7-24.9,8c-7.4-5.3-15.7-8-24.9-8c-8.1,0-15,1.8-20.8,5.5v15.6
		c5.3-5.8,12.2-8.6,20.8-8.6c10.8,0,19.1,4.7,24.9,14.2c5.8-9.5,14.1-14.2,24.9-14.2c8.1,0,14.9,2.8,20.6,8.5
		c5.6,5.7,8.5,12.5,8.5,20.6v144.2c0,12.5,10.1,22.6,22.6,22.6c12,0,21.8-9.4,22.5-21.3l0,0V172.7h8.7v111.4l0,0h0
		c0,17.1-13.9,31-31,31s-31-13.9-31-31V139.9c0-5.8-2-10.7-6.1-14.7c-4-4-8.9-6.1-14.7-6.1c-5.8,0-10.7,2-14.7,6.1
		c-4,4-6.1,8.9-6.1,14.7v104c0,0,0,0,0,0c0,3.4,2.8,6.2,6.2,6.2s6.2-2.8,6.2-6.2c0,0,0,0,0,0v-104c0-5.5,2.8-8.3,8.3-8.3
		c5.5,0,8.3,2.8,8.3,8.3l0,144.3c0,24,19.5,43.5,43.5,43.5c23.6,0,42.7-18.8,43.4-42.2l0,0V160.3h-33.6V284.1z"/>
	<path class="st0" d="M248.5,119.1c-5.8,0-10.7,2-14.7,6.1c-4,4-6.1,8.9-6.1,14.7v144.3c0,17.1-13.8,30.9-30.9,30.9
		s-30.9-13.8-30.9-30.9v-46.3h-41.5v89.9c0,31.1-25.2,56.4-56.4,56.4S11.6,359,11.6,327.8V119.6c0-8.2,2.9-15.1,8.7-20.8
		c5.8-5.7,12.8-8.6,21-8.6c8.2,0,15.1,2.9,20.8,8.6c5.7,5.7,8.6,12.7,8.6,20.8v99.6c0,2.4-2,4.4-4.4,4.4s-4.4-2-4.4-4.4v-99.6
		c0-5.8-2-10.8-5.9-14.9c-4-4.1-8.9-6.1-14.7-6.1c-5.8,0-10.8,2-15,6.1c-4.2,4.1-6.3,9-6.3,14.9v208c0,0,0,0,0,0v0.2h0
		c0.1,26.4,21.5,47.8,47.9,47.8c26.4,0,47.8-21.4,47.9-47.8h0V119.1c0-8.1,3-14.9,8.7-20.6c5.6-5.6,12.5-8.5,20.6-8.5
		c8.1,0,14.9,2.8,20.6,8.5c5.6,5.7,8.5,12.5,8.5,20.6v165.1h0c0.5,12,10.4,22.5,22.4,22.5c12.4,0,22.5-10.1,22.5-22.5
		c0,0,0-177.1,0-177.3c0-3.4-2.8-6.2-6.2-6.2s-6.2,2.8-6.2,6.2c0,0.1,0,177.3,0,177.3c0,5.5-4.5,10-10,10s-10-5.5-10-11V119.1
		c0-11.5-4-21.3-12.1-29.4c-8.1-8.1-17.9-12.1-29.4-12.1c-11.5,0-21.4,4.1-29.6,12.3c-8.2,8.2-12.1,17.9-12.1,29.2l-0.2,208.7
		c0,19.5-15.8,35.4-35.4,35.4s-35.4-15.8-35.4-35.4V119.6c0-5.6,2.9-8.4,8.7-8.4c5.4,0,8,2.8,8,8.4l0.2,99.6
		c0,9.3,7.6,16.9,16.9,16.9s16.9-7.6,16.9-16.9v-99.6c0-11.7-4.1-21.6-12.2-29.7C62.9,81.7,53,77.6,41.3,77.6
		c-11.7,0-21.6,4.1-29.9,12.2C3.1,98-1,107.9-1,119.6v208.2h0c0.1,38,30.9,68.8,69,68.8s68.9-30.8,69-68.8h0v-0.2c0,0,0,0,0,0v-77.2
		h16.5l0,33.8c0,24,19.4,43.4,43.4,43.4c24,0,43.4-19.4,43.4-43.4V139.9c0-5.5,2.8-8.3,8.3-8.3c5.5,0,8.3,2.8,8.3,8.3v104
		c0,3.4,2.8,6.2,6.2,6.2s6.2-2.8,6.2-6.2v-104c0-5.8-2.1-10.7-6.2-14.7C258.9,121.2,254.1,119.1,248.5,119.1z"/>
	<path class="st1" d="M533.5,24c-5.8,0-10.7,2-14.9,6.1c-4.1,4-6.2,8.9-6.2,14.7c0,5.8,2.1,10.7,6.2,14.7c4.2,4,9.1,6.1,14.9,6.1
		c5.8,0,10.6-2,14.5-6.1c3.9-4,5.9-8.9,5.9-14.7c0-5.8-2-10.7-5.9-14.7C544.1,26,539.2,24,533.5,24z M533.5,53
		c-5.8,0-8.6-2.8-8.6-8.3s2.9-8.3,8.6-8.3c5.3,0,8,2.8,8,8.3S538.8,53,533.5,53z"/>
	<path class="st0" d="M575,44.7c0-23.1-18.7-41.9-41.9-41.9s-41.9,18.7-41.9,41.9c0,17.2,10.4,32,25.3,38.4h-0.2
		c0,79.3,0,244.7,0,244.7c0,19.4-15.7,35.1-35.1,35.1c-19.4,0-35.1-15.7-35.1-35.1v-77.5h8.3c11.3,0,21.1-4.1,29.4-12.3
		c8.3-8.2,12.5-17.9,12.5-29.2v-89.7c0-11.5-4.1-21.3-12.3-29.4c-8.2-8.1-18.1-12.1-29.6-12.1l-94.6,0.1v74h33v-54h-12v41h-10V90.1
		l83.6-0.1c8.1,0,14.9,2.8,20.6,8.5c5.6,5.7,8.5,12.5,8.5,20.6v89.7c0,8.1-2.8,14.9-8.5,20.6c-5.7,5.7-12.5,8.5-20.6,8.5h-20.8v90
		c0,26.3,21.3,47.5,47.5,47.5c26.3,0,47.5-21.3,47.5-47.5c0,0,0-161,0-241.5c1.4,0.1,2.8,0.2,4.3,0.2c1.5,0,2.9-0.1,4.4-0.2v241.5
		c0,30.9-25.1,56-56,56s-56-25.1-56-56V98.4L413,98.6v229.3c0,37.8,30.7,68.5,68.5,68.5s68.5-30.7,68.5-68.5V83.2h-0.2
		C564.6,76.7,575,61.9,575,44.7z M533.1,74c-16.2,0-29.3-13.1-29.3-29.3c0-16.2,13.1-29.3,29.3-29.3s29.3,13.1,29.3,29.3
		C562.5,60.9,549.3,74,533.1,74z"/>
</g>
</svg>
