<?xml version="1.0" encoding="utf-8"?>
<!-- Generator: Adobe Illustrator 22.1.0, SVG Export Plug-In . SVG Version: 6.00 Build 0)  -->
<svg version="1.1" id="Capa_1" xmlns="http://www.w3.org/2000/svg" xmlns:xlink="http://www.w3.org/1999/xlink" x="0px" y="0px"
	 viewBox="272.3 221 96 120" style="enable-background:new 272.3 221 96 120;" xml:space="preserve" fill="#330066">
<g>
	<g>
		<path d="M-222.4,199.4V216h-39.5v-16.7H-222.4z M-223.2,215.2v-15.1h-37.9v15.1H-223.2z"/>
	</g>
	<g>
		<polygon points="-222.6,196.1 -223.4,196.2 -223.8,193.1 -261.4,200.2 -261.6,199.4 -223.2,192.2 		"/>
	</g>
	<g>
		<polygon points="-222.4,199.8 -223.2,199.8 -223.4,196.6 -261.5,200.2 -261.5,199.4 -222.6,195.7 		"/>
	</g>
	<g>
		<path d="M-254.7,207.7c0,1.3-1.1,2.4-2.4,2.4s-2.4-1.1-2.4-2.4c0-1.3,1.1-2.4,2.4-2.4S-254.7,206.4-254.7,207.7z M-258.8,207.7
			c0,0.9,0.7,1.6,1.6,1.6c0.9,0,1.6-0.7,1.6-1.6c0-0.9-0.7-1.6-1.6-1.6C-258,206.1-258.8,206.8-258.8,207.7z"/>
	</g>
	<g>
		<g>
			<path d="M-246.7,202.3v10.8h-5.4v-10.8H-246.7z M-247.5,212.3v-9.2h-3.8v9.2H-247.5z"/>
		</g>
		<g>
			<path d="M-225.6,202.3v10.8h-5.4v-10.8H-225.6z M-226.4,212.3v-9.2h-3.8v9.2H-226.4z"/>
		</g>
		<g>
			<path d="M-232.6,202.3v10.8h-5.4v-10.8H-232.6z M-233.4,212.3v-9.2h-3.8v9.2H-233.4z"/>
		</g>
		<g>
			<path d="M-239.6,202.3v10.8h-5.4v-10.8H-239.6z M-240.4,212.3v-9.2h-3.8v9.2H-240.4z"/>
		</g>
	</g>
</g>
</svg>
