<?xml version="1.0" encoding="utf-8"?>
<!-- Generator: Adobe Illustrator 22.1.0, SVG Export Plug-In . SVG Version: 6.00 Build 0)  -->
<svg version="1.1" id="Capa_1" xmlns="http://www.w3.org/2000/svg" xmlns:xlink="http://www.w3.org/1999/xlink" x="0px" y="0px"
	 viewBox="272.3 221 96 120" style="enable-background:new 272.3 221 96 120;" xml:space="preserve" fill="#330066">
<g>
	<g>
		<polygon points="-101.8,199.9 -114,199.9 -114,186.3 -92.7,186.3 -92.7,193.4 -93.5,193.4 -93.5,187.1 -113.3,187.1 -113.3,199.2 
			-101.8,199.2 		"/>
	</g>
	<g>
		<path d="M-101.5,202.7h-3.8v-3.5h3.8V202.7z M-104.5,201.9h2.2v-2h-2.2V201.9z"/>
	</g>
	<g>
		<path d="M-101.5,204.9h-5.7v-3h5.7V204.9z M-106.4,204.1h4.2v-1.5h-4.2V204.1z"/>
	</g>
	<g>
		<polygon points="-87.4,212.3 -89.8,212.3 -89.8,211.6 -88.2,211.6 -88.2,193.8 -101.5,193.8 -101.5,207.4 -102.3,207.4 
			-102.3,193 -87.4,193 		"/>
	</g>
	<g>
		<rect x="-101.9" y="196.7" width="14.1" height="0.8"/>
	</g>
	<g>
		<rect x="-89.8" y="208.9" width="2" height="0.8"/>
	</g>
	<g>
		<rect x="-97.1" y="194.9" width="4.4" height="0.8"/>
	</g>
	<g>
		<g>
			<path d="M-89.5,217.5h-17.8v-10.9h17.8V217.5z M-106.5,216.7h16.3v-9.3h-16.3V216.7z"/>
		</g>
		<g>
			<rect x="-94" y="207" width="0.8" height="10.1"/>
		</g>
		<g>
			<rect x="-104.4" y="207" width="0.8" height="10.1"/>
		</g>
		<g>
			<rect x="-92.3" y="210.5" width="0.8" height="3.4"/>
		</g>
	</g>
	<g>
		<g>
			<path d="M-108.1,215.3h-9.4v-14.7h9.4V215.3z M-116.7,214.5h7.8v-13.1h-7.8V214.5z"/>
		</g>
		<g>
			<rect x="-117" y="210.1" width="8.6" height="0.8"/>
		</g>
	</g>
</g>
</svg>
